<svg width="22" height="24" viewBox="0 0 22 24" fill="none" xmlns="http://www.w3.org/2000/svg">
<path d="M0.831626 20.276V22.8008C0.831626 22.96 0.894908 23.1125 1.00741 23.2251C1.11991 23.3376 1.27249 23.4008 1.43163 23.4008H9.18603C9.40033 23.4008 9.59845 23.2864 9.70563 23.1008C9.81281 22.9152 9.81282 22.6864 9.70563 22.5008C9.59844 22.3152 9.40031 22.2008 9.18603 22.2008H2.03163V20.2808C2.03132 19.7517 2.18592 19.2341 2.47639 18.7918C2.76679 18.3496 3.18037 18.002 3.66607 17.792L9.19807 15.392H9.19799C9.30463 15.3461 9.39565 15.27 9.46003 15.1734C9.52433 15.0767 9.55925 14.9634 9.56042 14.8472V12.9056C9.56026 12.6939 9.49214 12.4878 9.36604 12.3176C8.87378 11.6042 8.5669 10.7793 8.47322 9.91762C8.45346 9.74731 8.36174 9.59356 8.22118 9.4952C7.6815 9.11942 7.35908 8.50402 7.3572 7.84644C7.35588 7.72668 7.40463 7.6119 7.49158 7.52964C7.57939 7.44613 7.6969 7.40113 7.81798 7.4048C7.98001 7.41128 8.13774 7.35198 8.25532 7.24026C8.37282 7.12862 8.44016 6.97416 8.44196 6.81198L8.46118 4.9808C8.46024 4.57019 8.5368 4.16306 8.6868 3.78081C9.1404 2.64081 10.2972 1.4408 11.7588 1.4408H12.1404V2.1008C12.1402 2.24963 12.1954 2.39322 12.2952 2.50371C12.395 2.61409 12.5322 2.68355 12.6804 2.69839C13.1365 2.76589 13.5736 2.92769 13.9637 3.17355C14.3538 3.41949 14.6883 3.74395 14.946 4.12645C15.1743 4.44473 15.2968 4.82669 15.2964 5.21841V6.79763C15.2964 6.95677 15.3596 7.10935 15.4721 7.22193C15.5846 7.33443 15.7372 7.39764 15.8964 7.39764C16.0144 7.39857 16.1274 7.446 16.2108 7.52967C16.2939 7.61201 16.3398 7.72467 16.338 7.84163C16.3356 8.48577 16.0262 9.09015 15.5051 9.46881C15.3704 9.56842 15.2833 9.71983 15.2651 9.88647C15.1736 10.7759 14.8536 11.6266 14.3364 12.3561C14.2078 12.5276 14.1804 12.7546 14.2646 12.9517C14.3488 13.1489 14.5318 13.2861 14.7446 13.3117C14.9574 13.3374 15.1678 13.2476 15.2964 13.0761C15.8954 12.2449 16.2826 11.2802 16.4243 10.2657C17.1304 9.65575 17.5374 8.76989 17.5404 7.83687C17.5418 7.40179 17.3689 6.98437 17.0604 6.67765C16.8997 6.5171 16.7077 6.39125 16.4964 6.30805V5.21609C16.4989 4.57031 16.2954 3.94063 15.9156 3.41843C15.2946 2.53133 14.384 1.88803 13.3404 1.59929V0.840849C13.3404 0.681709 13.2772 0.529129 13.1647 0.416549C13.0521 0.304049 12.8995 0.240845 12.7404 0.240845H11.7588C9.74284 0.240845 8.17563 1.83686 7.57083 3.31764H7.57076C7.36412 3.8403 7.25826 4.39724 7.2588 4.95928L7.24442 6.29366H7.24434C7.02566 6.37273 6.82614 6.49703 6.6588 6.65843C6.3367 6.96655 6.15528 7.39351 6.15716 7.83929C6.15865 8.79281 6.58334 9.69655 7.31638 10.3065C7.45263 11.265 7.81006 12.1787 8.36036 12.9753V14.4513L3.19076 16.6857C2.4899 16.9885 1.89302 17.4898 1.4738 18.1278C1.05458 18.7658 0.831303 19.5126 0.831543 20.2762L0.831626 20.276Z" fill="#0D0F14"/>
<path d="M21.1725 14.1936C21.1727 14.0061 21.085 13.8292 20.9356 13.7157C20.7863 13.6022 20.5925 13.565 20.4117 13.6153L15.2421 15.0553C15.1158 15.0905 15.0044 15.166 14.9251 15.2705C14.8458 15.3749 14.8029 15.5025 14.8029 15.6337V19.9201C14.5026 19.779 14.1748 19.7062 13.8429 19.7065C13.3113 19.7391 12.8137 19.9789 12.4569 20.3743C12.1 20.7697 11.9123 21.2892 11.9342 21.8214C11.9561 22.3536 12.1857 22.8559 12.5738 23.2208C12.9619 23.5855 13.4775 23.7837 14.01 23.7726C14.5425 23.7615 15.0495 23.5422 15.422 23.1615C15.7946 22.781 16.0032 22.2695 16.0029 21.7369V21.6865V21.6601V16.0801L19.9725 14.9808V18.48C19.6722 18.339 19.3444 18.2661 19.0125 18.2664C18.4809 18.2991 17.9833 18.5389 17.6264 18.9343C17.2696 19.3297 17.0819 19.8492 17.1038 20.3814C17.1257 20.9135 17.3553 21.4159 17.7434 21.7807C18.1315 22.1455 18.6471 22.3436 19.1796 22.3325C19.7121 22.3215 20.2191 22.1021 20.5916 21.7215C20.9642 21.341 21.1728 20.8295 21.1725 20.2968V20.2464V20.22L21.1725 14.1936ZM13.8429 22.56C13.6292 22.5292 13.4356 22.4173 13.3024 22.2475C13.169 22.0777 13.1061 21.8631 13.1268 21.6482C13.1475 21.4332 13.2501 21.2346 13.4134 21.0933C13.5767 20.9522 13.7881 20.8792 14.0037 20.8896C14.2194 20.9001 14.4227 20.9932 14.5715 21.1496C14.7203 21.306 14.8032 21.5137 14.8029 21.7296C14.7846 21.9666 14.6734 22.1867 14.4936 22.3421C14.3139 22.4976 14.0801 22.5759 13.8429 22.56H13.8429ZM19.0101 21.12H19.0102C18.7965 21.0892 18.6028 20.9773 18.4696 20.8075C18.3362 20.6377 18.2733 20.4231 18.294 20.2082C18.3147 19.9932 18.4174 19.7946 18.5807 19.6533C18.7439 19.5122 18.9553 19.4392 19.171 19.4496C19.3866 19.4601 19.5899 19.5532 19.7387 19.7096C19.8875 19.866 19.9704 20.0737 19.9702 20.2896C19.9518 20.5261 19.8409 20.7458 19.6617 20.9013C19.4825 21.0567 19.2493 21.1353 19.0125 21.12H19.0101Z" fill="#0D0F14"/>
</svg>
