<svg width="24" height="21" viewBox="0 0 24 21" fill="none" xmlns="http://www.w3.org/2000/svg">
<path d="M20.7298 9.79119V2.06751C20.7298 1.79751 20.5109 1.57863 20.2409 1.57863H17.0328V0.748953C17.0328 0.523953 16.8503 0.341553 16.6253 0.341553H16.1561C15.9311 0.341553 15.7486 0.523953 15.7486 0.748953V1.57863H5.62295V0.748953C5.62295 0.523953 5.44055 0.341553 5.21555 0.341553H4.74647C4.52147 0.341553 4.33895 0.523953 4.33895 0.748953V1.57863H1.23131C0.961312 1.57863 0.742432 1.79751 0.742432 2.06751V18.2165C0.742432 18.4866 0.961312 18.7054 1.23131 18.7054H12.2089C12.2308 18.7054 12.2514 18.7018 12.2725 18.6988C13.4093 20.0865 15.1351 20.9739 17.0646 20.9739C20.4799 20.9739 23.2584 18.1953 23.2584 14.7801C23.2584 12.7355 22.2619 10.9198 20.7298 9.79119ZM1.72019 2.55639H4.33895V3.42303C4.33895 3.64803 4.52135 3.83043 4.74647 3.83043H5.21555C5.44055 3.83043 5.62295 3.64803 5.62295 3.42303V2.55639H15.7483V3.42303C15.7483 3.64803 15.9308 3.83043 16.1558 3.83043H16.625C16.85 3.83043 17.0326 3.64803 17.0326 3.42303V2.55639H19.7518V5.50395H1.72019V2.55639ZM1.72019 17.7275V6.48171H19.752V9.20043C18.9388 8.80707 18.027 8.58639 17.0646 8.58639C13.6495 8.58639 10.8712 11.3649 10.8712 14.7801C10.8712 15.8464 11.142 16.8506 11.6185 17.7276H1.72019V17.7275ZM17.0646 19.9962C14.1886 19.9962 11.8489 17.6561 11.8489 14.7801C11.8489 11.904 14.1886 9.56427 17.0646 9.56427C19.9409 9.56427 22.2806 11.9042 22.2806 14.7801C22.2806 17.656 19.9409 19.9962 17.0646 19.9962Z" fill="#0D0F14"/>
<path d="M21.0565 15.484L17.5217 14.3615V10.4937C17.5217 10.2237 17.3026 10.0048 17.0328 10.0048C16.7628 10.0048 16.5439 10.2237 16.5439 10.4937V14.7193C16.5439 14.9324 16.6817 15.1208 16.8847 15.1852L20.7609 16.4161C20.8098 16.4318 20.86 16.4392 20.9089 16.4392C21.1159 16.4392 21.3088 16.3061 21.3747 16.0981C21.4564 15.8407 21.3138 15.5656 21.0565 15.484Z" fill="#0D0F14"/>
</svg>
