<svg width="25" height="24" viewBox="0 0 25 24" fill="none" xmlns="http://www.w3.org/2000/svg">
<path d="M11.7313 3.98741C11.9463 3.98741 12.1224 3.8073 12.1224 3.58721C12.1224 3.36712 11.9464 3.18701 11.7313 3.18701C6.76535 3.18701 2.72998 7.3206 2.72998 12.3986C2.72998 12.6186 2.90598 12.7988 3.12104 12.7988C3.33611 12.7988 3.51211 12.6187 3.51211 12.3986C3.51202 7.76077 7.1993 3.98745 11.7312 3.98745L11.7313 3.98741Z" fill="#0D0F14"/>
<path d="M20.3407 11.9982C20.1257 11.9982 19.9497 12.1783 19.9497 12.3984C19.9497 17.0362 16.2625 20.8095 11.7305 20.8095C11.5155 20.8095 11.3395 20.9896 11.3395 21.2097C11.3395 21.4298 11.5155 21.6099 11.7305 21.6099C16.6926 21.6099 20.7318 17.4763 20.7318 12.3983C20.7318 12.1781 20.5598 11.998 20.3409 11.998L20.3407 11.9982Z" fill="#0D0F14"/>
<path d="M11.3395 18.621C11.3395 18.8411 11.5155 19.0212 11.7305 19.0212C15.2967 19.0212 18.198 16.0521 18.198 12.3987C18.198 12.1787 18.022 11.9985 17.807 11.9985C17.5919 11.9985 17.4159 12.1786 17.4159 12.3987C17.4159 15.608 14.8664 18.221 11.7306 18.221C11.5156 18.221 11.3396 18.401 11.3396 18.6211L11.3395 18.621Z" fill="#0D0F14"/>
<path d="M12.1232 6.17998C12.1232 5.9599 11.9472 5.77979 11.7321 5.77979C8.16598 5.77979 5.26074 8.74892 5.26074 12.4023C5.26074 12.6224 5.43674 12.8025 5.65181 12.8025C5.86687 12.8025 6.04287 12.6224 6.04287 12.4023C6.04287 9.19305 8.59627 6.58001 11.7323 6.58001C11.9473 6.58001 12.1232 6.39998 12.1232 6.1799L12.1232 6.17998Z" fill="#0D0F14"/>
<path d="M14.6545 12.3984C14.6545 10.7498 13.3446 9.40527 11.7297 9.40527C10.1149 9.40527 8.80493 10.7458 8.80493 12.3984C8.80493 14.051 10.1149 15.3915 11.7297 15.3915C13.3446 15.3915 14.6545 14.0511 14.6545 12.3984ZM9.58689 12.3984C9.58689 11.1899 10.5488 10.2056 11.7297 10.2056C12.9106 10.2056 13.8725 11.1899 13.8725 12.3984C13.8725 13.6069 12.9106 14.5912 11.7297 14.5912C10.5488 14.5912 9.58689 13.6069 9.58689 12.3984Z" fill="#0D0F14"/>
<path fill-rule="evenodd" clip-rule="evenodd" d="M16.8194 1.00702C15.3444 0.359423 13.7142 0 12 0C5.37258 0 0 5.37258 0 12C0 18.6274 5.37258 24 12 24C18.6274 24 24 18.6274 24 12C24 11.44 23.9616 10.889 23.8874 10.3494H22.877C22.958 10.8878 23 11.439 23 12C23 18.0751 18.0751 23 12 23C5.92487 23 1 18.0751 1 12C1 5.92487 5.92487 1 12 1C13.7286 1 15.3641 1.39872 16.8194 2.1092V1.00702Z" fill="#0D0F14"/>
<path d="M22.9218 0.566112C22.7471 0.415534 22.5211 0.371995 22.3086 0.446535L18.8621 1.65817C18.4885 1.7895 18.2367 2.15654 18.2367 2.56977V7.77016C18.2367 7.89883 18.1337 8.00436 18.0114 7.99358C17.7977 7.97467 17.5617 8.01056 17.3301 8.10913C16.7208 8.36837 16.3743 8.9598 16.5562 9.4301C16.7382 9.90044 17.3796 10.0715 17.989 9.81227C18.4851 9.60118 18.8068 9.16987 18.811 8.76304H18.8112V3.67004C18.8112 3.58862 18.8618 3.51623 18.937 3.48978L22.3332 2.29586C22.4541 2.25336 22.5799 2.34528 22.5799 2.47612V6.1598C22.5799 6.28848 22.4769 6.39404 22.3546 6.38323C22.1408 6.36428 21.9047 6.40014 21.673 6.49875C21.0637 6.75799 20.7172 7.34942 20.8991 7.81972C21.0811 8.29002 21.7225 8.46116 22.3319 8.20189C22.8321 7.98907 23.1544 7.55246 23.1535 7.14269C23.1536 7.14173 23.1545 7.14114 23.1545 7.14014V1.121C23.1545 0.909976 23.0774 0.699919 22.9219 0.565944L22.9218 0.566112Z" fill="#0D0F14"/>
</svg>
